<svg xmlns="http://www.w3.org/2000/svg" viewBox="0 0 64 64" role="img" aria-label="CW">
  <rect width="64" height="64" rx="12" fill="#2d3130"/>
  <path fill="#fffaf0" d="M18.8 42.2c-2.8 0-5-1-6.7-2.9-1.6-1.9-2.4-4.4-2.4-7.3 0-3 .8-5.5 2.5-7.4 1.7-1.9 4-2.8 6.8-2.8 2.5 0 4.5.7 6 2.1l-2 3.5c-1.1-1-2.4-1.5-3.9-1.5-1.6 0-2.8.5-3.7 1.6-.9 1.1-1.3 2.6-1.3 4.5s.4 3.4 1.3 4.5c.8 1.1 2 1.6 3.6 1.6 1.7 0 3.1-.6 4.2-1.8l2 3.4c-1.5 1.7-3.6 2.5-6.4 2.5Zm13.3-.4-5.2-19.6h4.4l3 12.6 3.6-12.6h3.8l3.5 12.6 3-12.6h4.3l-5.2 19.6h-4.1L39.7 30l-3.5 11.8h-4.1Z"/>
</svg>
