<svg xmlns="http://www.w3.org/2000/svg" viewBox="0 0 1280 320" role="img" aria-labelledby="title desc">
  <title id="title">Distributed card-not-present authorization flow</title>
  <desc id="desc">A card-not-present authorization request moves from the merchant application through merchant checks, gateway, processor or acquirer, card network, and issuer, then returns a response through the same chain.</desc>
  <defs>
    <marker id="arrow-green" markerWidth="22" markerHeight="18" refX="20" refY="9" orient="auto" markerUnits="userSpaceOnUse">
      <path d="M2 2 L20 9 L2 16 Z" fill="#315f4b"/>
    </marker>
    <marker id="arrow-red" markerWidth="18" markerHeight="16" refX="16" refY="8" orient="auto" markerUnits="userSpaceOnUse">
      <path d="M2 2 L16 8 L2 14 Z" fill="#a9473f"/>
    </marker>
    <filter id="shadow" x="-10%" y="-25%" width="120%" height="150%">
      <feDropShadow dx="0" dy="10" stdDeviation="10" flood-color="#2d3130" flood-opacity="0.14"/>
    </filter>
  </defs>
  <rect width="1280" height="320" rx="24" fill="#fbfaf7"/>
  <g font-family="Inter, Arial, sans-serif">
    <g filter="url(#shadow)">
      <rect x="35" y="48" width="154" height="100" rx="14" fill="#fffdf8" stroke="#ded8cc" stroke-width="2"/>
      <text x="112" y="86" text-anchor="middle" fill="#20231f" font-size="18" font-weight="760">Merchant</text>
      <text x="112" y="113" text-anchor="middle" fill="#62665f" font-size="15">application</text>
    </g>
    <g filter="url(#shadow)">
      <rect x="231" y="48" width="154" height="100" rx="14" fill="#fffdf8" stroke="#ded8cc" stroke-width="2"/>
      <text x="308" y="79" text-anchor="middle" fill="#20231f" font-size="18" font-weight="760">Merchant</text>
      <text x="308" y="104" text-anchor="middle" fill="#62665f" font-size="15">fraud and</text>
      <text x="308" y="127" text-anchor="middle" fill="#62665f" font-size="15">eligibility</text>
    </g>
    <g filter="url(#shadow)">
      <rect x="427" y="48" width="154" height="100" rx="14" fill="#fffdf8" stroke="#ded8cc" stroke-width="2"/>
      <text x="504" y="104" text-anchor="middle" fill="#20231f" font-size="18" font-weight="760">Gateway</text>
    </g>
    <g filter="url(#shadow)">
      <rect x="623" y="48" width="154" height="100" rx="14" fill="#fffdf8" stroke="#ded8cc" stroke-width="2"/>
      <text x="700" y="82" text-anchor="middle" fill="#20231f" font-size="18" font-weight="760">Processor</text>
      <text x="700" y="109" text-anchor="middle" fill="#62665f" font-size="15">or acquirer</text>
    </g>
    <g filter="url(#shadow)">
      <rect x="819" y="48" width="154" height="100" rx="14" fill="#fffdf8" stroke="#ded8cc" stroke-width="2"/>
      <text x="896" y="86" text-anchor="middle" fill="#20231f" font-size="18" font-weight="760">Card</text>
      <text x="896" y="113" text-anchor="middle" fill="#62665f" font-size="15">network</text>
    </g>
    <g filter="url(#shadow)">
      <rect x="1015" y="48" width="154" height="100" rx="14" fill="#315f4b" stroke="#315f4b" stroke-width="2"/>
      <text x="1092" y="87" text-anchor="middle" fill="#fffaf0" font-size="18" font-weight="760">Issuer</text>
      <text x="1092" y="114" text-anchor="middle" fill="#e9efe9" font-size="15">decision</text>
    </g>

    <path d="M189 98 H231" stroke="#315f4b" stroke-width="3" marker-end="url(#arrow-green)"/>
    <path d="M385 98 H427" stroke="#315f4b" stroke-width="3" marker-end="url(#arrow-green)"/>
    <path d="M581 98 H623" stroke="#315f4b" stroke-width="3" marker-end="url(#arrow-green)"/>
    <path d="M777 98 H819" stroke="#315f4b" stroke-width="3" marker-end="url(#arrow-green)"/>
    <path d="M973 98 H1015" stroke="#315f4b" stroke-width="3" marker-end="url(#arrow-green)"/>

    <path d="M1092 158 C1092 206 112 206 112 158" fill="none" stroke="#a9473f" stroke-width="3" stroke-dasharray="8 8" marker-end="url(#arrow-red)"/>
    <rect x="394" y="180" width="492" height="38" rx="19" fill="#fbfaf7"/>
    <text x="640" y="205" text-anchor="middle" fill="#a9473f" font-size="17" font-weight="760">Response returns through the same chain</text>

    <rect x="35" y="242" width="248" height="42" rx="21" fill="#eee7dc"/>
    <text x="159" y="269" text-anchor="middle" fill="#2d3130" font-size="15" font-weight="720">Validate</text>
    <rect x="319" y="242" width="248" height="42" rx="21" fill="#eee7dc"/>
    <text x="443" y="269" text-anchor="middle" fill="#2d3130" font-size="15" font-weight="720">Enrich or transform</text>
    <rect x="603" y="242" width="248" height="42" rx="21" fill="#eee7dc"/>
    <text x="727" y="269" text-anchor="middle" fill="#2d3130" font-size="15" font-weight="720">Route or reject</text>
    <rect x="887" y="242" width="248" height="42" rx="21" fill="#eee7dc"/>
    <text x="1011" y="269" text-anchor="middle" fill="#2d3130" font-size="15" font-weight="720">Approve or decline</text>
  </g>
</svg>
